# ProBuilder 5.2.4
# https://unity3d.com/unity/features/worldbuilding/probuilder
# 10/30/2025 7:50:48 PM

mtllib ./PolyShape.mtl
o PolyShape

g PolyShape
v -0.8149807 3.988659 5.869275
v -0.5060833 3.98866 14.19102
v -1.250234 3.988659 6.783278
v -5.627368 3.988659 6.18813
v -4.916608 3.988659 10.75405
v -5.536057 3.988659 14.02864
v -5.231352 3.988659 10.44998
v -5.872705 3.988659 5.654478
v -5.536056 0 14.02864
v -5.231351 0 10.44998
v -4.916608 0 10.75405
v -5.627367 0 6.18813
v -5.872704 -4.768372E-07 5.654478
v -0.8149805 0 5.869275
v -1.250234 0 6.783278
v -0.506083 4.768372E-07 14.19102

vt 0.8149805 5.869275
vt 0.506083 14.19102
vt 1.250234 6.783278
vt 5.627367 6.18813
vt 4.916608 10.75405
vt 5.536056 14.02864
vt 5.231351 10.44998
vt 5.872704 5.654478
vt -5.536056 14.02864
vt -5.231351 10.44998
vt -4.916608 10.75405
vt -5.627367 6.18813
vt -5.872704 5.654478
vt -0.8149805 5.869275
vt -1.250234 6.783278
vt -0.506083 14.19102
vt 14.44773 5.152936E-07
vt 10.85612 5.152936E-07
vt 14.44773 3.98866
vt 10.85612 3.98866
vt -11.48051 3.326671E-07
vt -14.81317 3.326671E-07
vt -11.48051 3.98866
vt -14.81317 3.98866
vt -5.248924 7.692599E-07
vt -9.869835 7.692599E-07
vt -5.248924 3.98866
vt -9.869835 3.98866
vt 9.664285 7.785521E-07
vt 4.826089 3.017149E-07
vt 9.664285 3.98866
vt 4.826089 3.98866
vt 5.627491 -4.469165E-07
vt 0.5652081 2.99207E-08
vt 5.627491 3.988659
vt 0.5652084 3.988659
vt -0.3249382 5.54858E-08
vt -4.742347 5.54858E-08
vt -0.3249385 3.988659
vt -4.742348 3.988659
vt -5.835005 6.165239E-08
vt -14.16248 5.384895E-07
vt -5.835005 3.988659
vt -14.16248 3.98866
vt 14.06937 5.911465E-07
vt 6.624344 1.143093E-07
vt 14.06937 3.98866
vt 6.624344 3.988659

vn -5.635952E-08 1 -3.067599E-07
vn 0 -1 0
vn -0.9963948 -1.191172E-07 -0.08483797
vn 0.9825739 1.17465E-07 0.1858721
vn 0.9880999 1.181256E-07 -0.1538138
vn -0.9911749 -1.184932E-07 0.1325603
vn 0.04243087 5.072535E-09 -0.9990994
vn -0.1347279 -8.053239E-09 0.9908826
vn 0.9993117 5.973298E-08 -0.03709376
vn -0.9949922 -5.947478E-08 0.09995271

usemtl ProBuilderDefault
f 5/5/1 7/7/1 6/6/1
f 7/7/1 5/5/1 4/4/1
f 7/7/1 4/4/1 8/8/1
f 4/4/1 1/1/1 8/8/1
f 3/3/1 1/1/1 4/4/1
f 2/2/1 1/1/1 3/3/1
f 15/15/2 14/14/2 16/16/2
f 12/12/2 14/14/2 15/15/2
f 13/13/2 14/14/2 12/12/2
f 13/13/2 12/12/2 10/10/2
f 12/12/2 11/11/2 10/10/2
f 9/9/2 10/10/2 11/11/2
f 7/20/3 10/18/3 9/17/3
f 9/17/3 6/19/3 7/20/3
f 6/24/4 9/22/4 11/21/4
f 11/21/4 5/23/4 6/24/4
f 5/28/5 11/26/5 12/25/5
f 12/25/5 4/27/5 5/28/5
f 8/32/6 13/30/6 10/29/6
f 10/29/6 7/31/6 8/32/6
f 1/36/7 14/34/7 13/33/7
f 13/33/7 8/35/7 1/36/7
f 4/40/8 12/38/8 15/37/8
f 15/37/8 3/39/8 4/40/8
f 2/44/9 16/42/9 14/41/9
f 14/41/9 1/43/9 2/44/9
f 3/48/10 15/46/10 16/45/10
f 16/45/10 2/47/10 3/48/10

